<svg width="137" height="20" viewBox="0 0 137 20" fill="none" xmlns="http://www.w3.org/2000/svg">
<path fill-rule="evenodd" clip-rule="evenodd" d="M19.7424 6.81616C17.7283 6.80803 15.7142 6.80261 13.7 6.79042C13.471 6.78906 13.3612 6.87309 13.3761 7.10893C13.3842 7.22956 13.3761 7.35155 13.3761 7.47218C13.3761 11.2903 13.3761 15.1099 13.3761 18.928C13.3761 19.1083 13.3761 19.2858 13.3761 19.4973C11.2698 19.4973 9.20146 19.4973 7.05451 19.4973C7.05451 19.317 7.05451 19.13 7.05451 18.9389C7.05451 15.0895 7.05451 11.2415 7.05451 7.39357C7.05451 6.79584 7.05451 6.79448 6.47304 6.79448C4.73 6.79312 2.98831 6.79448 1.24662 6.79448C1.08126 6.79448 0.915901 6.79448 0.715302 6.79448C0.715302 4.68277 0.715302 2.60358 0.715302 0.5C7.03689 0.5 13.3503 0.5 19.7289 0.5C19.7289 2.60494 19.7289 4.71665 19.7289 6.82972L19.7424 6.81616ZM19.7438 6.81481C19.7614 7.00999 19.7926 7.20245 19.7926 7.39763C19.7953 11.247 19.7939 15.095 19.7966 18.9443C19.7966 19.1327 19.8142 19.3224 19.8237 19.5C26.1928 19.5 32.5049 19.5 38.8319 19.5C38.8319 17.4005 38.8319 15.3335 38.8319 13.2123C38.6231 13.2123 38.4456 13.2123 38.268 13.2123C34.4038 13.2123 30.5395 13.2042 26.6753 13.2204C26.2497 13.2231 26.1019 13.1228 26.1087 12.6728C26.1345 10.9149 26.1196 9.15694 26.1182 7.39899C26.1182 7.22414 26.1019 7.0493 26.0911 6.82972C23.936 6.82972 21.8324 6.82972 19.7289 6.82972C19.7275 6.82972 19.7424 6.81616 19.7438 6.81481ZM26.2104 0.506778C26.2009 0.673493 26.1846 0.807676 26.1846 0.941861C26.1833 2.72963 26.1955 4.51876 26.1738 6.30518C26.1697 6.72535 26.3202 6.80126 26.7024 6.7999C30.5815 6.7877 34.4607 6.79313 38.3399 6.79177C38.5011 6.79177 38.6624 6.77821 38.8414 6.77008C38.8414 4.66243 38.8414 2.60629 38.8414 0.505424C34.6071 0.506779 30.4203 0.506778 26.2104 0.506778ZM87.8987 5.1192C87.3742 5.05957 86.8361 5.03517 86.3115 5.08532C84.4506 5.25474 83.0775 6.1859 82.3361 7.90455C81.5121 9.81702 81.5297 11.7742 82.3239 13.6975C82.9325 15.1722 84.0467 16.1251 85.6216 16.4002C86.3834 16.5357 87.198 16.5425 87.9651 16.4314C89.6228 16.1928 90.7261 15.1709 91.4729 13.6569C90.5959 13.1906 89.7461 12.7406 88.899 12.2906C88.632 12.6566 88.4192 13.0103 88.144 13.3072C87.3498 14.1733 85.97 14.0269 85.4631 12.9737C84.7772 11.5492 84.7731 10.0515 85.4481 8.62562C86.0147 7.43287 87.5531 7.42745 88.2335 8.56328C88.3934 8.82894 88.5208 9.11628 88.6754 9.41854C89.6024 9.05529 90.5011 8.70424 91.4363 8.33557C90.8467 6.55729 89.8139 5.33878 87.8987 5.1192ZM131.442 15.8364C131.442 14.4728 131.44 13.1093 131.445 11.7458C131.446 11.5045 131.463 11.2605 131.506 11.0247C131.608 10.4825 131.877 10.2657 132.411 10.2657C132.929 10.267 133.226 10.5029 133.317 11.0315C133.363 11.2971 133.364 11.5736 133.366 11.8461C133.37 13.1784 133.368 14.5121 133.368 15.8445C133.368 16.0085 133.368 16.1698 133.368 16.3446C134.356 16.3446 135.286 16.3446 136.208 16.3446C136.228 16.2891 136.246 16.2619 136.246 16.2362C136.25 14.7507 136.259 13.2665 136.251 11.7824C136.246 11.2388 136.24 10.6885 136.159 10.1532C135.9 8.43587 134.683 7.56706 132.971 7.89371C132.453 7.99265 131.964 8.24069 131.425 8.43316C131.425 7.24176 131.425 6.03817 131.425 4.77222C130.58 5.10701 129.802 5.43637 129.011 5.72236C128.675 5.84299 128.55 5.99886 128.551 6.37159C128.569 9.53781 128.561 12.7013 128.562 15.8675C128.562 16.0288 128.577 16.1874 128.585 16.3473C129.557 16.3473 130.476 16.3473 131.442 16.3473C131.442 16.1616 131.442 15.9976 131.442 15.8364ZM75.1322 11.7295C75.1335 11.4882 75.1471 11.2443 75.1986 11.0098C75.3233 10.4324 75.6161 10.2196 76.1935 10.2426C76.7085 10.2629 76.9986 10.5367 77.0691 11.1006C77.1057 11.4001 77.1192 11.7037 77.1219 12.006C77.1273 13.2638 77.1219 14.5189 77.1246 15.7754C77.1246 15.9529 77.1436 16.1278 77.1531 16.3202C78.0965 16.3202 78.9951 16.3202 79.9235 16.3202C79.9317 16.1454 79.9452 15.9976 79.9452 15.8513C79.9452 14.3373 79.952 12.8206 79.9411 11.3066C79.9384 10.9149 79.91 10.5191 79.8476 10.1315C79.5915 8.49415 78.4421 7.63482 76.8075 7.90997C76.245 8.00485 75.7082 8.26509 75.1281 8.45891C75.1281 7.27971 75.1281 6.07612 75.1281 4.81017C74.2864 5.1436 73.5111 5.47297 72.7169 5.7576C72.4024 5.87145 72.3224 6.03952 72.3238 6.35397C72.3346 9.52019 72.3306 12.6837 72.3319 15.8499C72.3319 16.0085 72.3468 16.1671 72.355 16.3243C73.2997 16.3243 74.1902 16.3243 75.1322 16.3243C75.1295 14.7588 75.1268 13.2448 75.1322 11.7295ZM108.209 8.02925C107.251 8.02925 106.331 8.02925 105.355 8.02925C105.355 8.21629 105.355 8.37758 105.355 8.53888C105.355 9.8875 105.356 11.2361 105.354 12.5861C105.352 12.8423 105.351 13.1052 105.307 13.356C105.215 13.8805 104.914 14.1164 104.395 14.1136C103.875 14.1109 103.596 13.8751 103.509 13.3329C103.465 13.0659 103.449 12.7908 103.448 12.5197C103.442 11.1846 103.446 9.85226 103.445 8.51719C103.444 8.35861 103.429 8.19868 103.421 8.02518C102.453 8.02518 101.534 8.02518 100.591 8.02518C100.578 8.16343 100.558 8.28 100.559 8.39656C100.576 10.2602 100.52 12.1266 100.634 13.9862C100.756 15.9529 102.263 16.9532 104.145 16.4354C104.544 16.3243 104.914 16.1074 105.322 15.9299C105.345 16.0681 105.367 16.205 105.394 16.3555C106.344 16.3555 107.263 16.3555 108.211 16.3555C108.209 13.5498 108.209 10.7875 108.209 8.02925ZM117.94 10.4554C117.936 10.0867 117.814 9.70588 117.681 9.35483C117.395 8.59716 116.851 8.09566 116.048 7.91675C115.153 7.71886 114.303 7.84085 113.514 8.33015C113.422 8.38843 113.318 8.42909 113.205 8.48602C113.18 8.30169 113.163 8.17021 113.143 8.02518C112.211 8.02518 111.293 8.02518 110.348 8.02518C110.348 10.8105 110.348 13.5715 110.348 16.346C111.294 16.346 112.211 16.346 113.177 16.346C113.177 16.1603 113.177 15.999 113.177 15.835C113.177 14.4715 113.174 13.1079 113.18 11.7444C113.182 11.4882 113.201 11.228 113.251 10.9786C113.352 10.4812 113.64 10.2657 114.151 10.2657C114.656 10.267 114.946 10.4879 115.043 10.9922C115.091 11.2429 115.096 11.5045 115.099 11.7593C115.103 13.1242 115.1 14.4877 115.1 15.8513C115.1 16.0126 115.1 16.1766 115.1 16.3541C116.084 16.3541 117.003 16.3541 117.952 16.3541C117.953 14.359 117.967 12.4058 117.94 10.4554ZM48.5772 16.3135C49.6114 16.3135 50.5832 16.3135 51.5916 16.3135C51.5916 16.0966 51.5916 15.9163 51.5916 15.7361C51.5916 13.2977 51.5997 10.8607 51.5835 8.42232C51.5808 8.01976 51.6716 7.86253 52.108 7.88015C52.9646 7.91539 53.8239 7.891 54.7361 7.891C54.7361 7.14417 54.7131 6.45021 54.7456 5.76031C54.7646 5.35775 54.6372 5.24661 54.2373 5.24932C51.4669 5.26559 48.6951 5.25746 45.9247 5.25881C45.7661 5.25881 45.6089 5.28321 45.4652 5.29405C45.4652 6.18862 45.4652 7.02761 45.4652 7.891C46.0019 7.891 46.4994 7.891 46.9981 7.891C47.4956 7.891 47.993 7.891 48.5772 7.891C48.5772 10.7455 48.5772 13.5227 48.5772 16.3135ZM61.7381 10.6248C61.3559 8.88722 60.1564 7.93031 58.3889 7.85576C56.6459 7.78121 55.2241 8.7449 54.7199 10.3876C54.3607 11.5574 54.3471 12.7555 54.7104 13.9252C55.159 15.3701 56.139 16.2362 57.6584 16.4666C58.5787 16.6049 59.4719 16.4883 60.3407 16.1888C60.8029 16.0329 61.2421 15.8106 61.7246 15.6032C61.3342 14.954 60.9927 14.3888 60.6443 13.8087C60.4532 13.8914 60.3068 13.9808 60.1496 14.0147C59.5492 14.1421 58.946 14.3264 58.3401 14.3508C57.5852 14.3779 57.1067 13.8155 57.0796 12.9954C58.6776 12.9954 60.2757 12.9954 62.0255 12.9954C61.9265 12.1442 61.9035 11.3676 61.7381 10.6248ZM57.0823 11.2307C57.0945 10.4026 57.5337 9.91461 58.2276 9.9241C58.9758 9.93358 59.4312 10.4297 59.4082 11.2307C58.6072 11.2307 57.8441 11.2307 57.0823 11.2307ZM123.493 7.83407C121.996 7.891 120.752 8.43451 120.127 9.88208C119.447 11.4584 119.452 13.0835 120.191 14.6368C120.877 16.0776 122.166 16.5479 123.681 16.5452C125.165 16.5452 126.166 15.7726 126.938 14.5406C126.328 14.0635 125.739 13.6067 125.152 13.1459C124.946 13.3926 124.791 13.6013 124.612 13.7816C123.855 14.5419 122.837 14.3115 122.654 13.2706C122.525 12.5454 122.598 11.7715 122.67 11.0288C122.707 10.6181 122.971 10.2629 123.443 10.183C123.932 10.1003 124.295 10.3104 124.566 10.7048C124.682 10.8729 124.795 11.0423 124.92 11.228C125.584 10.7251 126.209 10.2494 126.864 9.75332C126.079 8.42231 124.98 7.77579 123.493 7.83407ZM67.7195 7.8788C65.7691 7.74732 64.0721 8.57277 63.6059 10.6872C63.4554 11.3717 63.4134 12.0995 63.4473 12.8003C63.5503 14.9391 64.7742 16.2389 66.8439 16.5032C68.4053 16.7011 69.9234 15.9123 70.5821 14.5419C70.4859 14.4593 70.3883 14.3671 70.2826 14.2858C69.8204 13.9225 69.3555 13.5661 68.8879 13.2001C68.652 13.459 68.4609 13.7165 68.2237 13.9198C67.5257 14.5203 66.6664 14.3034 66.3777 13.4332C66.0944 12.578 66.0998 11.6956 66.4102 10.8485C66.7138 10.023 67.6124 9.87666 68.1844 10.5381C68.3511 10.7319 68.4826 10.9528 68.6479 11.1873C69.2755 10.7116 69.8881 10.248 70.5428 9.74925C69.8827 8.62969 68.9868 7.96419 67.7195 7.8788ZM99.1499 8.49008C99.2163 8.22171 99.1228 8.10244 98.8869 8.01705C98.0344 7.71344 97.2225 7.76223 96.4621 8.28271C96.3483 8.36268 96.2358 8.44129 96.0962 8.53888C96.0677 8.32472 96.0487 8.17834 96.0297 8.02518C95.085 8.02518 94.1661 8.02518 93.2214 8.02518C93.2214 10.8105 93.2214 13.5715 93.2214 16.3351C94.1796 16.3351 95.1094 16.3351 96.0677 16.3351C96.0677 15.9827 96.0677 15.6656 96.0677 15.3498C96.0677 14.1367 96.0609 12.925 96.0758 11.7146C96.0813 11.2687 96.1504 10.8132 96.6126 10.591C97.1046 10.3551 97.5898 10.4432 98.0371 10.7319C98.1984 10.8349 98.3448 10.965 98.5481 11.1209C98.7568 10.1979 98.9425 9.34128 99.1499 8.49008Z" fill="#71717A"/>
</svg>
