<svg width="16" height="16" viewBox="0 0 16 16" fill="none" xmlns="http://www.w3.org/2000/svg">
<g clip-path="url(#clip0_6053_554)">
<path d="M5.66659 5.66683L10.3333 10.3335M6.99992 13.6668L13.6666 7.00017C13.9781 6.69488 14.226 6.33087 14.396 5.92918C14.5659 5.52749 14.6546 5.09609 14.6568 4.65993C14.659 4.22377 14.5747 3.7915 14.4088 3.38811C14.2429 2.98472 13.9987 2.61823 13.6903 2.30981C13.3819 2.00139 13.0154 1.75718 12.612 1.59128C12.2086 1.42538 11.7763 1.3411 11.3402 1.3433C10.904 1.34551 10.4726 1.43415 10.0709 1.60411C9.66922 1.77408 9.30521 2.02198 8.99992 2.3335L2.33325 9.00017C2.02174 9.30545 1.77383 9.66946 1.60387 10.0712C1.43391 10.4728 1.34526 10.9042 1.34306 11.3404C1.34086 11.7766 1.42514 12.2088 1.59104 12.6122C1.75693 13.0156 2.00115 13.3821 2.30957 13.6905C2.61798 13.9989 2.98448 14.2432 3.38787 14.4091C3.79125 14.5749 4.22352 14.6592 4.65968 14.657C5.09585 14.6548 5.52724 14.5662 5.92893 14.3962C6.33062 14.2263 6.69464 13.9783 6.99992 13.6668Z" stroke="#FC5F2B" stroke-width="1.33333" stroke-linecap="round" stroke-linejoin="round"/>
</g>
<defs>
<clipPath id="clip0_6053_554">
<rect width="16" height="16" fill="white"/>
</clipPath>
</defs>
</svg>
